<svg width="31" height="31" viewBox="0 0 31 31" fill="none" xmlns="http://www.w3.org/2000/svg">
    <path d="M29.6664 15.3332C29.6664 22.0898 29.6664 25.4682 27.5665 27.5665C25.4696 29.6664 22.0898 29.6664 15.3332 29.6664C8.57652 29.6664 5.19819 29.6664 3.09838 27.5665C1 25.4696 1 22.0898 1 15.3332C1 8.57652 1 5.19819 3.09838 3.09838C5.19962 1 8.57652 1 15.3332 1" stroke="white" stroke-width="2" stroke-linecap="round"/>
    <path opacity="0.5" d="M1 16.0501L3.51117 13.8529C4.1406 13.3026 4.95559 13.012 5.79118 13.0399C6.62677 13.0679 7.42053 13.4123 8.01179 14.0034L14.1607 20.1523C14.6379 20.6294 15.268 20.9228 15.9403 20.981C16.6125 21.0392 17.2837 20.8584 17.8357 20.4705L18.2643 20.1695C19.0607 19.6102 20.0232 19.3376 20.9945 19.3961C21.9659 19.4547 22.8887 19.841 23.612 20.492L28.233 24.65" stroke="white" stroke-width="2" stroke-linecap="round"/>
    <path d="M19.6333 6.01661H24.6499M24.6499 6.01661H29.6665M24.6499 6.01661V11.0332M24.6499 6.01661V1" stroke="white" stroke-width="2" stroke-linecap="round"/>
</svg>
