<svg width="34" height="36" viewBox="0 0 34 36" fill="none" xmlns="http://www.w3.org/2000/svg">
<path d="M20.3281 15.3779C20.3281 15.3779 26.2095 16.0617 29.3918 12.4124C32.5908 8.71349 31.991 2.04907 31.991 2.04907C30.5791 1.92878 29.157 2.02998 27.7763 2.34898L26.9925 5.38088L23.8095 4.19803C23.4661 4.45769 23.1553 4.752 22.8769 5.08097C19.6779 8.71349 20.3281 15.3779 20.3281 15.3779ZM20.3281 15.3779L16.9955 18.7105" stroke="#040404" stroke-width="3" stroke-linecap="round" stroke-linejoin="round"/>
<path d="M16.9955 3.71484H3.66591C3.22408 3.71484 2.80035 3.89036 2.48793 4.20278C2.17551 4.51519 2 4.93892 2 5.38075V32.04C2 32.4819 2.17551 32.9056 2.48793 33.218C2.80035 33.5304 3.22408 33.7059 3.66591 33.7059H30.3252C30.767 33.7059 31.1907 33.5304 31.5032 33.218C31.8156 32.9056 31.9911 32.4819 31.9911 32.04V18.7104" stroke="white" stroke-width="3" stroke-linecap="round" stroke-linejoin="round"/>
</svg>
