<svg width="30" height="30" viewBox="0 0 30 30" fill="none" xmlns="http://www.w3.org/2000/svg">
<mask id="path-1-inside-1_56_268" fill="white">
<path d="M30 15.0006C30 15.0171 29.987 15.0308 29.9705 15.0318C21.9479 15.5301 15.5276 21.9479 15.0305 29.9705C15.0295 29.987 15.0159 30 14.9994 30C14.9829 30 14.9692 29.987 14.9682 29.9705C14.4699 21.9479 8.0509 15.5301 0.0294559 15.0318C0.0129845 15.0308 0 15.0171 0 15.0006C0 14.9841 0.0129829 14.9705 0.0294525 14.9694C8.05214 14.4699 14.4699 8.05214 14.9682 0.0294533C14.9692 0.0129836 14.9829 0 14.9994 0C15.0159 0 15.0295 0.0129843 15.0306 0.0294541C15.5289 8.05214 21.9479 14.4699 29.9705 14.9694C29.987 14.9705 30 14.9841 30 15.0006Z"/>
<path d="M9.375 25.3127C9.375 25.3179 9.37094 25.3221 9.3658 25.3224C6.8587 25.4782 4.85238 27.4837 4.69705 29.9908C4.69673 29.9959 4.69246 30 4.6873 30C4.68215 30 4.67788 29.9959 4.67756 29.9908C4.52184 27.4837 2.51591 25.4782 0.00920498 25.3224C0.00405764 25.3221 0 25.3179 0 25.3127C0 25.3075 0.00405715 25.3033 0.00920389 25.303C2.51629 25.1468 4.52184 23.1413 4.67756 20.6342C4.67788 20.6291 4.68215 20.625 4.6873 20.625C4.69246 20.625 4.69673 20.6291 4.69705 20.6342C4.85277 23.1413 6.85871 25.1468 9.3658 25.303C9.37094 25.3033 9.375 25.3075 9.375 25.3127Z"/>
<path d="M30 4.6877C30 4.69285 29.9959 4.69712 29.9908 4.69744C27.4837 4.85316 25.4774 6.85871 25.322 9.3658C25.3217 9.37094 25.3175 9.375 25.3123 9.375C25.3071 9.375 25.3029 9.37094 25.3026 9.3658C25.1468 6.85871 23.1409 4.85316 20.6342 4.69744C20.6291 4.69712 20.625 4.69285 20.625 4.6877C20.625 4.68254 20.6291 4.67827 20.6342 4.67795C23.1413 4.52184 25.1468 2.51629 25.3026 0.00920416C25.3029 0.00405736 25.3071 0 25.3123 0C25.3175 0 25.3217 0.0040576 25.322 0.00920439C25.4778 2.51629 27.4837 4.52184 29.9908 4.67795C29.9959 4.67827 30 4.68254 30 4.6877Z"/>
</mask>
<path d="M29.9705 14.9694L30.0948 12.9733L29.9705 14.9694ZM15.0306 0.0294541L13.0344 0.15344L15.0306 0.0294541ZM14.9682 0.0294533L12.972 -0.0945322L14.9682 0.0294533ZM0.0294525 14.9694L0.153746 16.9656L0.0294525 14.9694ZM0.0294559 15.0318L-0.0945496 17.028L0.0294559 15.0318ZM14.9682 29.9705L12.972 30.0945L14.9682 29.9705ZM15.0305 29.9705L17.0267 30.0942L15.0305 29.9705ZM29.9705 15.0318L29.8466 13.0357L29.9705 15.0318ZM9.3658 25.303L9.49009 23.3068L9.3658 25.303ZM4.69705 20.6342L6.6932 20.5102L4.69705 20.6342ZM4.67756 20.6342L2.68141 20.5102L4.67756 20.6342ZM0.00920389 25.303L0.133498 27.2991L0.00920389 25.303ZM0.00920498 25.3224L0.13321 23.3263L0.00920498 25.3224ZM4.67756 29.9908L6.67372 29.8668L4.67756 29.9908ZM4.69705 29.9908L6.69322 30.1145L4.69705 29.9908ZM9.3658 25.3224L9.48978 27.3186L9.3658 25.3224ZM29.9908 4.67795L30.1151 2.68182L29.9908 4.67795ZM25.322 0.00920439L27.3182 -0.114782L25.322 0.00920439ZM25.3026 0.00920416L23.3064 -0.114781V-0.114781L25.3026 0.00920416ZM20.6342 4.67795L20.7585 6.67409L20.6342 4.67795ZM20.6342 4.69744L20.7582 2.70129L20.6342 4.69744ZM25.3026 9.3658L27.2987 9.24181L25.3026 9.3658ZM25.322 9.3658L27.3182 9.48947L25.322 9.3658ZM29.9908 4.69744L30.1148 6.69359L29.9908 4.69744ZM29.8466 13.0357C20.8174 13.5965 13.5939 20.8165 13.0344 29.8469L17.0267 30.0942C17.4614 23.0792 23.0783 17.4638 30.0945 17.028L29.8466 13.0357ZM16.9644 29.8466C16.4035 20.8168 9.1817 13.5965 0.153461 13.0357L-0.0945496 17.028C6.9201 17.4637 12.5363 23.0789 12.972 30.0945L16.9644 29.8466ZM0.153746 16.9656C9.18306 16.4033 16.4035 9.18311 16.9644 0.153439L12.972 -0.0945322C12.5363 6.92118 6.92122 12.5364 -0.0948412 12.9733L0.153746 16.9656ZM13.0344 0.15344C13.5953 9.18332 20.8171 16.4034 29.8463 16.9656L30.0948 12.9733C23.0786 12.5364 17.4625 6.92097 17.0267 -0.0945323L13.0344 0.15344ZM29.8463 16.9656C28.8217 16.9018 28 16.0536 28 15.0006H32C32 13.9146 31.1524 13.0392 30.0948 12.9733L29.8463 16.9656ZM14.9994 2C13.9462 2 13.098 1.17811 13.0344 0.15344L17.0267 -0.0945323C16.961 -1.15214 16.0855 -2 14.9994 -2V2ZM16.9644 0.153439C16.9007 1.17818 16.0525 2 14.9994 2V-2C13.9133 -2 13.0377 -1.15221 12.972 -0.0945322L16.9644 0.153439ZM2 15.0006C2 16.0536 1.17833 16.9018 0.153746 16.9656L-0.0948412 12.9733C-1.15236 13.0392 -2 13.9146 -2 15.0006H2ZM0.153461 13.0357C1.17816 13.0993 2 13.9475 2 15.0006H-2C-2 16.0867 -1.15219 16.9623 -0.0945496 17.028L0.153461 13.0357ZM14.9994 28C16.0526 28 16.9007 28.822 16.9644 29.8466L12.972 30.0945C13.0377 31.1521 13.9131 32 14.9994 32V28ZM13.0344 29.8469C13.0979 28.8221 13.9461 28 14.9994 28V32C16.0856 32 16.9612 31.152 17.0267 30.0942L13.0344 29.8469ZM30.0945 17.028C31.152 16.9623 32 16.0869 32 15.0006H28C28 13.9474 28.822 13.0993 29.8466 13.0357L30.0945 17.028ZM9.24181 23.3263C5.72826 23.5445 2.91864 26.3524 2.70087 29.8671L6.69322 30.1145C6.78612 28.615 7.98915 27.4118 9.48978 27.3186L9.24181 23.3263ZM6.67372 29.8668C6.45544 26.3527 3.64671 23.5446 0.13321 23.3263L-0.114801 27.3186C1.3851 27.4118 2.58824 28.6147 2.68141 30.1148L6.67372 29.8668ZM0.133498 27.2991C3.64722 27.0803 6.45545 24.2723 6.67372 20.7582L2.68141 20.5102C2.58823 22.0103 1.38537 23.2134 -0.11509 23.3068L0.133498 27.2991ZM2.70089 20.7582C2.91918 24.2725 5.72799 27.0803 9.2415 27.2991L9.49009 23.3068C7.98942 23.2134 6.78636 22.0101 6.6932 20.5102L2.70089 20.7582ZM9.2415 27.2991C8.20561 27.2346 7.375 26.377 7.375 25.3127H11.375C11.375 24.238 10.5363 23.372 9.49009 23.3068L9.2415 27.2991ZM4.6873 22.625C3.623 22.625 2.76525 21.7944 2.70089 20.7582L6.6932 20.5102C6.6282 19.4637 5.76192 18.625 4.6873 18.625V22.625ZM6.67372 20.7582C6.60936 21.7944 5.75161 22.625 4.6873 22.625V18.625C3.61269 18.625 2.74641 19.4637 2.68141 20.5102L6.67372 20.7582ZM2 25.3127C2 26.3771 1.1693 27.2346 0.133498 27.2991L-0.11509 23.3068C-1.16119 23.372 -2 24.2379 -2 25.3127H2ZM0.13321 23.3263C1.1692 23.3906 2 24.2482 2 25.3127H-2C-2 26.3875 -1.16109 27.2536 -0.114801 27.3186L0.13321 23.3263ZM4.6873 28C5.75173 28 6.60936 28.8307 6.67372 29.8668L2.68141 30.1148C2.7464 31.1611 3.61257 32 4.6873 32V28ZM2.70087 29.8671C2.76506 28.8311 3.62255 28 4.6873 28V32C5.76238 32 6.62839 31.1607 6.69322 30.1145L2.70087 29.8671ZM9.48978 27.3186C10.536 27.2536 11.375 26.3876 11.375 25.3127H7.375C7.375 24.2481 8.20589 23.3906 9.24181 23.3263L9.48978 27.3186ZM29.8668 2.70129C26.3533 2.91952 23.5436 5.72739 23.3259 9.24212L27.3182 9.48947C27.4111 7.99002 28.6141 6.7868 30.1148 6.69359L29.8668 2.70129ZM27.2987 9.24181C27.0804 5.72768 24.2717 2.91955 20.7582 2.70129L20.5102 6.69359C22.0101 6.78677 23.2132 7.98973 23.3064 9.48978L27.2987 9.24181ZM20.7585 6.67409C24.2722 6.4553 27.0804 3.64726 27.2987 0.13319L23.3064 -0.114781C23.2132 1.38533 22.0104 2.58839 20.5099 2.68182L20.7585 6.67409ZM23.3259 0.133191C23.5442 3.64747 26.353 6.45531 29.8665 6.67409L30.1151 2.68182C28.6144 2.58837 27.4114 1.38512 27.3182 -0.114782L23.3259 0.133191ZM29.8665 6.67409C28.8305 6.60958 28 5.75192 28 4.6877H32C32 3.61315 31.1614 2.74697 30.1151 2.68182L29.8665 6.67409ZM25.3123 2C24.2475 2 23.3902 1.16891 23.3259 0.133191L27.3182 -0.114782C27.2532 -1.16079 26.3874 -2 25.3123 -2V2ZM27.2987 0.13319C27.2344 1.16944 26.3765 2 25.3123 2V-2C24.2378 -2 23.3714 -1.16133 23.3064 -0.114781L27.2987 0.13319ZM22.625 4.6877C22.625 5.75192 21.7945 6.60958 20.7585 6.67409L20.5099 2.68182C19.4636 2.74697 18.625 3.61315 18.625 4.6877H22.625ZM20.7582 2.70129C21.7942 2.76565 22.625 3.62323 22.625 4.6877H18.625C18.625 5.76247 19.4639 6.62859 20.5102 6.69359L20.7582 2.70129ZM25.3123 7.375C26.3768 7.375 27.2344 8.20586 27.2987 9.24181L23.3064 9.48978C23.3714 10.536 24.2375 11.375 25.3123 11.375V7.375ZM23.3259 9.24212C23.3901 8.20567 24.248 7.375 25.3123 7.375V11.375C26.3869 11.375 27.2534 10.5362 27.3182 9.48947L23.3259 9.24212ZM30.1148 6.69359C31.1611 6.6286 32 5.76246 32 4.6877H28C28 3.62325 28.8308 2.76564 29.8668 2.70129L30.1148 6.69359Z" fill="white" mask="url(#path-1-inside-1_56_268)"/>
</svg>
