<svg width="45" height="50" viewBox="0 0 45 50" fill="none" xmlns="http://www.w3.org/2000/svg">
    <path d="M32.2885 0C29.4634 0.184044 26.1614 1.88723 24.2372 4.10511C22.4819 6.11711 21.0379 9.10548 21.6009 12.0096C24.6876 12.1001 27.877 10.3563 29.7251 8.10103C31.4539 6.00169 32.7621 3.03204 32.2885 0Z" fill="black"/>
    <path d="M43.4755 16.7621C40.7788 13.5515 36.9889 11.6883 33.4097 11.6883C28.6847 11.6883 26.686 13.836 23.4032 13.836C20.0183 13.836 17.4467 11.6946 13.3605 11.6946C9.34672 11.6946 5.07281 14.0236 2.36292 18.0063C-1.44673 23.6147 -0.794774 34.1593 5.37903 43.1408C7.58842 46.3545 10.5387 49.9684 14.3977 49.9997C17.832 50.0309 18.8 47.9082 23.4526 47.8864C28.1052 47.8614 28.9876 50.0278 32.4153 49.9934C36.2777 49.9653 39.3893 45.9606 41.5986 42.7469C43.1824 40.4429 43.7718 39.2831 45 36.6821C36.0669 33.4528 34.6346 21.392 43.4755 16.7621Z" fill="black"/>
</svg>
