<svg width="28" height="25" viewBox="0 0 28 25" fill="none" xmlns="http://www.w3.org/2000/svg">
<path d="M13.778 17.6111C15.8951 17.6111 17.6114 15.8949 17.6114 13.7777C17.6114 11.6606 15.8951 9.94434 13.778 9.94434C11.6609 9.94434 9.94458 11.6606 9.94458 13.7777C9.94458 15.8949 11.6609 17.6111 13.778 17.6111Z" stroke="white" stroke-width="2"/>
<path d="M10.9387 24.0005H16.6173C20.6053 24.0005 22.6 24.0005 24.0324 23.0613C24.6506 22.6564 25.183 22.1336 25.599 21.5228C26.556 20.1172 26.556 18.1584 26.556 14.2432C26.556 10.328 26.556 8.36914 25.599 6.96356C25.183 6.35276 24.6506 5.82997 24.0324 5.42509C23.1124 4.82069 21.9598 4.60474 20.1951 4.52807C19.3531 4.52807 18.6286 3.90195 18.4637 3.09054C18.3377 2.4962 18.0104 1.96357 17.5371 1.58267C17.0638 1.20178 16.4735 0.995982 15.8659 1.00006H11.6901C10.4276 1.00006 9.34021 1.87535 9.09232 3.09054C8.92748 3.90195 8.20297 4.52807 7.3609 4.52807C5.59753 4.60474 4.44495 4.82196 3.52366 5.42509C2.90589 5.8301 2.37399 6.35288 1.95835 6.96356C1 8.36914 1 10.3267 1 14.2432C1 18.1597 1 20.116 1.95707 21.5228C2.37108 22.1311 2.90265 22.6537 3.52366 23.0613C4.95607 24.0005 6.95072 24.0005 10.9387 24.0005Z" stroke="white" stroke-width="2"/>
<path d="M22.7226 9.94434H21.4448" stroke="white" stroke-width="2" stroke-linecap="round"/>
</svg>
