<svg width="215" height="258" viewBox="0 0 215 258" fill="none" xmlns="http://www.w3.org/2000/svg">
    <path
        d="M196.7 21.4667V17.9667H193.2H32.2C24.1919 17.9667 17.9667 24.1919 17.9667 32.2V195.218V200.287L22.7067 198.491C25.747 197.339 28.9666 196.733 32.2175 196.7H193.2H196.7V193.2V21.4667ZM196.7 214.667V211.167H193.2H32.2C24.1919 211.167 17.9667 217.392 17.9667 225.4C17.9667 233.408 24.1919 239.633 32.2 239.633H193.2H196.7V236.133V214.667ZM3.5 32.2C3.5 16.4767 16.4767 3.5 32.2 3.5H211.167V254.1H32.2C16.4767 254.1 3.5 241.123 3.5 225.4V32.2Z"
        stroke="url(#paint0_linear_71_938)" stroke-opacity="0.7" stroke-width="7" />
    <path
        d="M92.3562 166C89.4655 156.653 85.1045 149.685 79.2733 145.095C70.5262 138.211 56.6283 142.49 51.4945 135.389C46.3608 128.289 55.0913 115.231 58.1549 107.526C61.2185 99.8215 46.4123 97.0972 48.1409 94.9099C49.2933 93.4517 56.7754 89.2438 70.5873 82.2864C74.5117 60.0955 89.0074 49 114.075 49C151.675 49 166 80.6075 166 100.711C166 120.814 148.654 142.472 123.945 147.142C121.736 150.332 124.922 156.618 133.505 166"
        fill="#101010" />
    <path fill-rule="evenodd" clip-rule="evenodd"
        d="M93.7242 79.7123C91.7969 87.1252 92.3704 92.3302 95.4446 95.3274C98.5188 98.325 103.758 100.285 111.163 101.208C109.483 110.769 111.532 115.254 117.308 114.664C123.085 114.074 126.555 111.694 127.721 107.524C136.748 110.04 141.641 107.935 142.399 101.208C143.536 91.1178 138.049 83.0688 135.799 83.0688C133.549 83.0688 127.721 82.7973 127.721 79.7123C127.721 76.627 120.912 74.884 114.767 74.884C108.622 74.884 112.32 70.777 103.882 72.3998C98.2571 73.4815 94.8711 75.9189 93.7242 79.7123Z"
        fill="url(#paint1_linear_71_938)" fill-opacity="0.7" />
    <path
        d="M126.176 111.887C123.176 113.733 119.059 116.802 117.326 119.2C112.992 125.195 109.477 128.845 108.708 132.679"
        fill="#1E1E1E" />
    <path
        d="M88.5348 167.182C89.1875 169.292 91.4275 170.474 93.538 169.821C95.6485 169.169 96.8303 166.929 96.1776 164.818L88.5348 167.182ZM79.2733 145.095L81.7471 141.952L81.7471 141.952L79.2733 145.095ZM51.4945 135.389L48.253 137.733L48.253 137.733L51.4945 135.389ZM58.1549 107.526L54.438 106.048L54.438 106.048L58.1549 107.526ZM48.1409 94.9099L45.0027 92.4295L45.0026 92.4297L48.1409 94.9099ZM70.5873 82.2864L72.3868 85.8588C73.5135 85.2912 74.3064 84.2253 74.5262 82.983L70.5873 82.2864ZM123.945 147.142L123.202 143.211C122.17 143.406 121.255 144 120.657 144.864L123.945 147.142ZM130.554 168.7C132.045 170.33 134.575 170.442 136.205 168.951C137.835 167.46 137.948 164.93 136.456 163.3L130.554 168.7ZM93.7242 79.7123L89.8954 78.5547C89.8802 78.6048 89.866 78.6552 89.8529 78.7058L93.7242 79.7123ZM95.4446 95.3274L98.2371 92.4635L98.237 92.4634L95.4446 95.3274ZM111.163 101.208L115.103 101.9C115.292 100.821 115.031 99.7116 114.38 98.8306C113.729 97.9495 112.745 97.3741 111.658 97.2386L111.163 101.208ZM117.308 114.664L116.901 110.685L116.901 110.685L117.308 114.664ZM127.721 107.524L128.794 103.671C126.667 103.078 124.462 104.321 123.868 106.448L127.721 107.524ZM142.399 101.208L138.424 100.76L138.424 100.76L142.399 101.208ZM103.882 72.3998L104.638 76.3278L104.638 76.3278L103.882 72.3998ZM128.272 115.294C130.153 114.136 130.74 111.673 129.582 109.791C128.424 107.91 125.961 107.323 124.079 108.481L128.272 115.294ZM117.326 119.2L114.084 116.856L114.084 116.857L117.326 119.2ZM104.786 131.892C104.352 134.058 105.756 136.166 107.922 136.6C110.088 137.035 112.196 135.631 112.63 133.465L104.786 131.892ZM96.1776 164.818C93.1225 154.94 88.391 147.181 81.7471 141.952L76.7994 148.239C81.8181 152.188 85.8085 158.366 88.5348 167.182L96.1776 164.818ZM81.7471 141.952C76.3462 137.701 69.4737 136.999 64.5455 136.357C61.8806 136.01 59.7601 135.701 58.011 135.13C56.3373 134.585 55.3586 133.907 54.736 133.046L48.253 137.733C50.1973 140.422 52.881 141.872 55.5304 142.736C58.1044 143.576 60.9676 143.959 63.5123 144.29C69.0033 145.005 73.4533 145.605 76.7995 148.239L81.7471 141.952ZM54.7361 133.046C54.1547 132.242 53.8242 131.103 53.931 129.37C54.0403 127.597 54.5952 125.484 55.4946 123.092C56.3863 120.722 57.5325 118.29 58.7012 115.872C59.8307 113.536 61.038 111.101 61.8718 109.004L54.438 106.048C53.74 107.803 52.7071 109.89 51.4985 112.391C50.329 114.81 49.039 117.532 48.0068 120.276C46.9824 123 46.1257 125.964 45.9462 128.877C45.7642 131.83 46.2674 134.987 48.253 137.733L54.7361 133.046ZM61.8718 109.004C63.1783 105.718 62.5435 102.719 60.9511 100.368C59.5282 98.2682 57.4138 96.7738 55.7515 95.7464C54.8814 95.2086 54.0158 94.7292 53.288 94.3281C52.5158 93.9026 51.9574 93.5965 51.522 93.3252C50.9866 92.9918 51.1109 92.9919 51.3529 93.3017C51.5068 93.4987 51.9055 94.0713 51.9861 94.9699C52.0782 95.9955 51.7069 96.8488 51.2792 97.39L45.0026 92.4297C44.3589 93.2443 43.9007 94.3753 44.0182 95.6848C44.1243 96.8674 44.6608 97.7303 45.0482 98.2262C45.7571 99.1338 46.7306 99.7658 47.2923 100.116C47.954 100.528 48.7407 100.957 49.4271 101.335C50.1579 101.737 50.8644 102.131 51.5455 102.552C52.9858 103.442 53.8905 104.21 54.3281 104.856C54.5962 105.251 54.6633 105.481 54.438 106.048L61.8718 109.004ZM51.2791 97.3902C51.1062 97.6089 51.2419 97.396 52.3866 96.645C53.3563 96.0086 54.742 95.1791 56.5775 94.1468C60.2395 92.0874 65.4996 89.328 72.3868 85.8588L68.7878 78.7141C61.863 82.2022 56.4762 85.0255 52.6561 87.1739C50.7505 88.2455 49.1864 89.1763 47.9975 89.9564C46.9835 90.6218 45.7519 91.4817 45.0027 92.4295L51.2791 97.3902ZM74.5262 82.983C76.3568 72.6316 80.5568 65.3024 86.8336 60.4979C93.1644 55.6522 102.097 53 114.075 53V45C100.985 45 90.1361 47.8956 81.9711 54.1453C73.7522 60.4363 68.7422 69.7503 66.6484 81.5898L74.5262 82.983ZM114.075 53C131.6 53 143.449 60.301 151.007 69.8061C158.677 79.4522 162 91.4822 162 100.711H170C170 89.836 166.161 76.0106 157.268 64.8271C148.264 53.5027 134.15 45 114.075 45V53ZM162 100.711C162 118.719 146.197 138.865 123.202 143.211L124.688 151.072C151.111 146.078 170 122.91 170 100.711H162ZM120.657 144.864C118.201 148.411 119.399 152.683 121.11 156.058C122.949 159.686 126.18 163.919 130.554 168.7L136.456 163.3C132.247 158.699 129.593 155.099 128.246 152.441C126.77 149.53 127.48 149.063 127.234 149.419L120.657 144.864ZM89.8529 78.7058C87.8497 86.4107 87.9364 93.5936 92.6523 98.1915L98.237 92.4634C96.8045 91.0668 95.7442 87.8396 97.5955 80.7188L89.8529 78.7058ZM92.6521 98.1914C96.6659 102.105 102.969 104.218 110.668 105.177L111.658 97.2386C104.547 96.3524 100.372 94.5449 98.2371 92.4635L92.6521 98.1914ZM107.223 100.516C106.357 105.448 106.245 109.997 107.801 113.404C108.642 115.246 109.989 116.789 111.892 117.736C113.736 118.654 115.759 118.843 117.715 118.643L116.901 110.685C115.969 110.78 115.569 110.63 115.457 110.574C115.404 110.548 115.261 110.482 115.078 110.081C114.586 109.003 114.289 106.528 115.103 101.9L107.223 100.516ZM117.715 118.643C121.028 118.305 124.049 117.42 126.506 115.735C129.04 113.998 130.746 111.562 131.573 108.601L123.868 106.448C123.53 107.656 122.918 108.495 121.981 109.138C120.968 109.833 119.364 110.433 116.901 110.685L117.715 118.643ZM126.647 111.377C131.442 112.713 136.024 113.106 139.742 111.506C143.876 109.727 145.885 105.998 146.374 101.656L138.424 100.76C138.156 103.145 137.339 103.831 136.58 104.158C135.405 104.663 133.027 104.851 128.794 103.671L126.647 111.377ZM146.374 101.656C147.035 95.7924 145.777 90.5255 144.001 86.6782C143.116 84.7614 142.053 83.0878 140.926 81.8227C140.365 81.1941 139.714 80.5814 138.979 80.0964C138.311 79.6551 137.198 79.0688 135.799 79.0688V87.0688C135.351 87.0688 135.023 86.971 134.85 86.9061C134.674 86.8399 134.58 86.7781 134.571 86.7722C134.563 86.7668 134.7 86.8618 134.953 87.1455C135.452 87.7049 136.111 88.6742 136.737 90.0309C137.984 92.7306 138.901 96.5333 138.424 100.76L146.374 101.656ZM135.799 79.0688C134.749 79.0688 133.15 78.9964 131.926 78.6769C131.298 78.5132 131.106 78.3675 131.145 78.399C131.307 78.5263 131.721 79.0065 131.721 79.7123H123.721C123.721 81.9607 124.863 83.6317 126.187 84.6774C127.391 85.6275 128.796 86.1281 129.906 86.4179C132.159 87.0054 134.599 87.0688 135.799 87.0688V79.0688ZM131.721 79.7123C131.721 77.3049 130.356 75.5871 129.085 74.5532C127.827 73.5304 126.28 72.8342 124.81 72.3455C121.834 71.3559 118.15 70.884 114.767 70.884V78.884C117.529 78.884 120.322 79.2836 122.286 79.9368C123.287 80.2695 123.825 80.5876 124.037 80.7594C124.234 80.9201 123.721 80.5771 123.721 79.7123H131.721ZM114.767 70.884C113.675 70.884 113.479 70.7024 113.599 70.7687C113.637 70.7896 113.636 70.8001 113.549 70.7199C113.494 70.6695 113.433 70.6109 113.319 70.4978C113.219 70.4003 113.061 70.244 112.888 70.0855C112.02 69.2895 110.819 68.4732 108.94 68.1584C107.313 67.8858 105.416 68.0316 103.127 68.4718L104.638 76.3278C106.568 75.9566 107.373 76.0073 107.618 76.0483C107.695 76.0612 107.643 76.0611 107.535 76.0039C107.436 75.951 107.4 75.9071 107.481 75.9812C107.533 76.0287 107.59 76.0847 107.708 76.201C107.811 76.3018 107.97 76.4586 108.146 76.6203C108.522 76.9644 109.035 77.386 109.722 77.7666C111.14 78.5522 112.787 78.884 114.767 78.884V70.884ZM103.127 68.4718C96.7726 69.6936 91.6519 72.745 89.8954 78.5547L97.553 80.87C98.0903 79.0928 99.7416 77.2693 104.638 76.3278L103.127 68.4718ZM124.079 108.481C122.45 109.483 120.535 110.806 118.776 112.214C117.076 113.575 115.273 115.212 114.084 116.856L120.567 121.543C121.111 120.791 122.234 119.694 123.776 118.459C125.258 117.272 126.901 116.138 128.272 115.294L124.079 108.481ZM114.084 116.857C113.035 118.307 112.033 119.62 111.08 120.868C110.141 122.098 109.224 123.297 108.416 124.438C106.837 126.667 105.344 129.11 104.786 131.892L112.63 133.465C112.841 132.413 113.49 131.115 114.944 129.062C115.653 128.061 116.475 126.984 117.438 125.724C118.387 124.481 119.449 123.09 120.567 121.543L114.084 116.857Z"
        fill="white" />
    <defs>
        <linearGradient id="paint0_linear_71_938" x1="107.333" y1="0" x2="107.333" y2="257.6"
            gradientUnits="userSpaceOnUse">
            <stop stop-color="#00DAB9" />
            <stop offset="1" stop-color="#2BCEEF" />
        </linearGradient>
        <linearGradient id="paint1_linear_71_938" x1="107" y1="49" x2="107" y2="166"
            gradientUnits="userSpaceOnUse">
            <stop stop-color="#00DAB9" />
            <stop offset="1" stop-color="#2BCEEF" />
        </linearGradient>
    </defs>
</svg>
