<svg width="24" height="24" viewBox="0 0 24 24" fill="none" xmlns="http://www.w3.org/2000/svg">
<path d="M3.67678 20.3232C5.96269 22.6091 8.73221 23.75 12 23.75C15.2678 23.75 18.0373 22.6091 20.3232 20.3232C22.6091 18.0373 23.75 15.2678 23.75 12C23.75 11.6939 23.7391 11.3943 23.7174 11.1012C23.7107 11.0108 23.7029 10.921 23.6942 10.8317C23.0883 11.5506 22.351 12.1413 21.4843 12.6033C20.4238 13.1685 19.2609 13.45 18 13.45C15.9345 13.45 14.1706 12.7242 12.7232 11.2768C11.2759 9.8294 10.55 8.06565 10.55 6.00019C10.55 6.00012 10.55 6.00006 10.55 6H10.8C10.7991 4.80089 11.0711 3.68444 11.616 2.65067C12.103 1.72675 12.7362 0.958329 13.5157 0.345394L3.67678 20.3232ZM3.67678 20.3232C1.39086 18.0373 0.25 15.2678 0.25 12C0.25 8.73221 1.39086 5.96269 3.67678 3.67678C5.96269 1.39086 8.73221 0.25 12 0.25C12.3052 0.25 12.6048 0.260899 12.8989 0.282652C12.9894 0.289346 13.0793 0.297068 13.1686 0.305815L3.67678 20.3232Z" stroke="white" stroke-width="0.5"/>
</svg>
