<svg width="28" height="28" viewBox="0 0 28 28" fill="none" xmlns="http://www.w3.org/2000/svg">
<mask id="path-1-inside-1_243_110" fill="white">
<path d="M4.42105 0H23.5789C24.7515 0 25.876 0.465788 26.7051 1.2949C27.5342 2.124 28 3.24852 28 4.42105V23.5789C28 24.7515 27.5342 25.876 26.7051 26.7051C25.876 27.5342 24.7515 28 23.5789 28H4.42105C3.24852 28 2.124 27.5342 1.2949 26.7051C0.465788 25.876 0 24.7515 0 23.5789V4.42105C0 3.24852 0.465788 2.124 1.2949 1.2949C2.124 0.465788 3.24852 0 4.42105 0ZM4.42105 1.47368C3.63936 1.47368 2.88969 1.78421 2.33695 2.33695C1.78421 2.88969 1.47368 3.63936 1.47368 4.42105V21.5011L7.79579 15.1642L11.48 18.8484L18.8484 11.48L26.5263 19.1579V4.42105C26.5263 3.63936 26.2158 2.88969 25.6631 2.33695C25.1103 1.78421 24.3606 1.47368 23.5789 1.47368H4.42105ZM11.48 20.9411L7.79579 17.2568L1.47368 23.5789C1.47368 24.3606 1.78421 25.1103 2.33695 25.6631C2.88969 26.2158 3.63936 26.5263 4.42105 26.5263H23.5789C24.3606 26.5263 25.1103 26.2158 25.6631 25.6631C26.2158 25.1103 26.5263 24.3606 26.5263 23.5789V21.2358L18.8484 13.5726L11.48 20.9411ZM8.10526 4.42105C9.08238 4.42105 10.0195 4.80921 10.7104 5.50013C11.4013 6.19106 11.7895 7.12815 11.7895 8.10526C11.7895 9.08238 11.4013 10.0195 10.7104 10.7104C10.0195 11.4013 9.08238 11.7895 8.10526 11.7895C7.12815 11.7895 6.19106 11.4013 5.50013 10.7104C4.80921 10.0195 4.42105 9.08238 4.42105 8.10526C4.42105 7.12815 4.80921 6.19106 5.50013 5.50013C6.19106 4.80921 7.12815 4.42105 8.10526 4.42105ZM8.10526 5.89474C7.51899 5.89474 6.95674 6.12763 6.54218 6.54218C6.12763 6.95674 5.89474 7.51899 5.89474 8.10526C5.89474 8.69153 6.12763 9.25379 6.54218 9.66834C6.95674 10.0829 7.51899 10.3158 8.10526 10.3158C8.69153 10.3158 9.25379 10.0829 9.66834 9.66834C10.0829 9.25379 10.3158 8.69153 10.3158 8.10526C10.3158 7.51899 10.0829 6.95674 9.66834 6.54218C9.25379 6.12763 8.69153 5.89474 8.10526 5.89474Z"/>
</mask>
<path d="M4.42105 0H23.5789C24.7515 0 25.876 0.465788 26.7051 1.2949C27.5342 2.124 28 3.24852 28 4.42105V23.5789C28 24.7515 27.5342 25.876 26.7051 26.7051C25.876 27.5342 24.7515 28 23.5789 28H4.42105C3.24852 28 2.124 27.5342 1.2949 26.7051C0.465788 25.876 0 24.7515 0 23.5789V4.42105C0 3.24852 0.465788 2.124 1.2949 1.2949C2.124 0.465788 3.24852 0 4.42105 0ZM4.42105 1.47368C3.63936 1.47368 2.88969 1.78421 2.33695 2.33695C1.78421 2.88969 1.47368 3.63936 1.47368 4.42105V21.5011L7.79579 15.1642L11.48 18.8484L18.8484 11.48L26.5263 19.1579V4.42105C26.5263 3.63936 26.2158 2.88969 25.6631 2.33695C25.1103 1.78421 24.3606 1.47368 23.5789 1.47368H4.42105ZM11.48 20.9411L7.79579 17.2568L1.47368 23.5789C1.47368 24.3606 1.78421 25.1103 2.33695 25.6631C2.88969 26.2158 3.63936 26.5263 4.42105 26.5263H23.5789C24.3606 26.5263 25.1103 26.2158 25.6631 25.6631C26.2158 25.1103 26.5263 24.3606 26.5263 23.5789V21.2358L18.8484 13.5726L11.48 20.9411ZM8.10526 4.42105C9.08238 4.42105 10.0195 4.80921 10.7104 5.50013C11.4013 6.19106 11.7895 7.12815 11.7895 8.10526C11.7895 9.08238 11.4013 10.0195 10.7104 10.7104C10.0195 11.4013 9.08238 11.7895 8.10526 11.7895C7.12815 11.7895 6.19106 11.4013 5.50013 10.7104C4.80921 10.0195 4.42105 9.08238 4.42105 8.10526C4.42105 7.12815 4.80921 6.19106 5.50013 5.50013C6.19106 4.80921 7.12815 4.42105 8.10526 4.42105ZM8.10526 5.89474C7.51899 5.89474 6.95674 6.12763 6.54218 6.54218C6.12763 6.95674 5.89474 7.51899 5.89474 8.10526C5.89474 8.69153 6.12763 9.25379 6.54218 9.66834C6.95674 10.0829 7.51899 10.3158 8.10526 10.3158C8.69153 10.3158 9.25379 10.0829 9.66834 9.66834C10.0829 9.25379 10.3158 8.69153 10.3158 8.10526C10.3158 7.51899 10.0829 6.95674 9.66834 6.54218C9.25379 6.12763 8.69153 5.89474 8.10526 5.89474Z" fill="black"/>
<path d="M4.42105 0V-10.6667V0ZM28 4.42105H38.6667H28ZM28 23.5789H38.6667H28ZM23.5789 28V38.6667V28ZM4.42105 28V38.6667V28ZM0 23.5789H-10.6667H0ZM0 4.42105H-10.6667H0ZM4.42105 1.47368V-9.19298V1.47368ZM1.47368 4.42105H-9.19298H1.47368ZM1.47368 21.5011H-9.19298V47.2951L9.02493 29.0347L1.47368 21.5011ZM7.79579 15.1642L15.3383 7.62174L7.787 0.0704793L0.244541 7.63052L7.79579 15.1642ZM11.48 18.8484L3.93753 26.3909L11.48 33.9334L19.0225 26.3909L11.48 18.8484ZM18.8484 11.48L26.3909 3.93753L18.8484 -3.60495L11.3059 3.93753L18.8484 11.48ZM26.5263 19.1579L18.9838 26.7004L37.193 44.9095V19.1579H26.5263ZM23.5789 1.47368V-9.19298V1.47368ZM11.48 20.9411L3.93753 28.4835L11.48 36.026L19.0225 28.4835L11.48 20.9411ZM7.79579 17.2568L15.3383 9.71437L7.79579 2.1719L0.253317 9.71437L7.79579 17.2568ZM1.47368 23.5789L-6.06879 16.0365L-9.19298 19.1607V23.5789H1.47368ZM26.5263 21.2358H37.193V16.8115L34.0615 13.6861L26.5263 21.2358ZM18.8484 13.5726L26.3836 6.02292L18.8412 -1.50507L11.3059 6.03016L18.8484 13.5726ZM8.10526 4.42105V-6.24561V4.42105ZM4.42105 8.10526H-6.24561H4.42105ZM8.10526 10.3158V20.9825V10.3158ZM10.3158 8.10526H20.9825H10.3158ZM4.42105 10.6667H23.5789V-10.6667H4.42105V10.6667ZM23.5789 10.6667C21.9225 10.6667 20.3339 10.0086 19.1626 8.83737L34.2476 -6.24758C31.4181 -9.07707 27.5805 -10.6667 23.5789 -10.6667V10.6667ZM19.1626 8.83737C17.9913 7.66609 17.3333 6.07749 17.3333 4.42105H38.6667C38.6667 0.419544 37.0771 -3.41808 34.2476 -6.24758L19.1626 8.83737ZM17.3333 4.42105V23.5789H38.6667V4.42105H17.3333ZM17.3333 23.5789C17.3333 21.9225 17.9913 20.3339 19.1626 19.1626L34.2476 34.2476C37.0771 31.4181 38.6667 27.5805 38.6667 23.5789H17.3333ZM19.1626 19.1626C20.3339 17.9913 21.9225 17.3333 23.5789 17.3333V38.6667C27.5805 38.6667 31.4181 37.0771 34.2476 34.2476L19.1626 19.1626ZM23.5789 17.3333H4.42105V38.6667H23.5789V17.3333ZM4.42105 17.3333C6.07749 17.3333 7.66609 17.9913 8.83737 19.1626L-6.24758 34.2476C-3.41808 37.0771 0.419544 38.6667 4.42105 38.6667V17.3333ZM8.83737 19.1626C10.0086 20.3339 10.6667 21.9225 10.6667 23.5789H-10.6667C-10.6667 27.5805 -9.07707 31.4181 -6.24758 34.2476L8.83737 19.1626ZM10.6667 23.5789V4.42105H-10.6667V23.5789H10.6667ZM10.6667 4.42105C10.6667 6.07749 10.0086 7.66609 8.83737 8.83737L-6.24758 -6.24758C-9.07707 -3.41808 -10.6667 0.419539 -10.6667 4.42105H10.6667ZM8.83737 8.83737C7.66609 10.0086 6.07749 10.6667 4.42105 10.6667V-10.6667C0.419539 -10.6667 -3.41808 -9.07707 -6.24758 -6.24758L8.83737 8.83737ZM4.42105 -9.19298C0.810388 -9.19298 -2.6524 -7.75865 -5.20552 -5.20552L9.87942 9.87942C8.43177 11.3271 6.46834 12.1404 4.42105 12.1404V-9.19298ZM-5.20552 -5.20552C-7.75865 -2.6524 -9.19298 0.810388 -9.19298 4.42105H12.1404C12.1404 6.46834 11.3271 8.43177 9.87942 9.87942L-5.20552 -5.20552ZM-9.19298 4.42105V21.5011H12.1404V4.42105H-9.19298ZM9.02493 29.0347L15.347 22.6979L0.244541 7.63052L-6.07756 13.9674L9.02493 29.0347ZM0.253317 22.7067L3.93753 26.3909L19.0225 11.3059L15.3383 7.62174L0.253317 22.7067ZM19.0225 26.3909L26.3909 19.0225L11.3059 3.93753L3.93753 11.3059L19.0225 26.3909ZM11.3059 19.0225L18.9838 26.7004L34.0688 11.6154L26.3909 3.93753L11.3059 19.0225ZM37.193 19.1579V4.42105H15.8596V19.1579H37.193ZM37.193 4.42105C37.193 0.810381 35.7586 -2.6524 33.2055 -5.20552L18.1206 9.87942C16.6729 8.43178 15.8596 6.46834 15.8596 4.42105H37.193ZM33.2055 -5.20552C30.6524 -7.75865 27.1896 -9.19298 23.5789 -9.19298V12.1404C21.5317 12.1404 19.5682 11.3271 18.1206 9.87942L33.2055 -5.20552ZM23.5789 -9.19298H4.42105V12.1404H23.5789V-9.19298ZM19.0225 13.3986L15.3383 9.71437L0.253318 24.7993L3.93753 28.4835L19.0225 13.3986ZM0.253317 9.71437L-6.06879 16.0365L9.01616 31.1214L15.3383 24.7993L0.253317 9.71437ZM-9.19298 23.5789C-9.19298 27.1896 -7.75865 30.6524 -5.20552 33.2055L9.87942 18.1206C11.3271 19.5682 12.1404 21.5317 12.1404 23.5789H-9.19298ZM-5.20552 33.2055C-2.6524 35.7586 0.810381 37.193 4.42105 37.193V15.8596C6.46834 15.8596 8.43178 16.6729 9.87942 18.1206L-5.20552 33.2055ZM4.42105 37.193H23.5789V15.8596H4.42105V37.193ZM23.5789 37.193C27.1896 37.193 30.6524 35.7586 33.2055 33.2055L18.1206 18.1206C19.5682 16.6729 21.5317 15.8596 23.5789 15.8596V37.193ZM33.2055 33.2055C35.7586 30.6524 37.193 27.1896 37.193 23.5789H15.8596C15.8596 21.5317 16.6729 19.5682 18.1206 18.1206L33.2055 33.2055ZM37.193 23.5789V21.2358H15.8596V23.5789H37.193ZM34.0615 13.6861L26.3836 6.02292L11.3132 21.1223L18.9911 28.7855L34.0615 13.6861ZM11.3059 6.03016L3.93753 13.3986L19.0225 28.4835L26.3909 21.1151L11.3059 6.03016ZM8.10526 15.0877C6.2534 15.0877 4.47739 14.3521 3.16792 13.0426L18.2529 -2.04234C15.5616 -4.73365 11.9114 -6.24561 8.10526 -6.24561V15.0877ZM3.16792 13.0426C1.85846 11.7331 1.12281 9.95713 1.12281 8.10526H22.4561C22.4561 4.29917 20.9442 0.648972 18.2529 -2.04234L3.16792 13.0426ZM1.12281 8.10526C1.12281 6.2534 1.85846 4.47739 3.16792 3.16792L18.2529 18.2529C20.9442 15.5616 22.4561 11.9114 22.4561 8.10526H1.12281ZM3.16792 3.16792C4.47739 1.85846 6.2534 1.12281 8.10526 1.12281V22.4561C11.9114 22.4561 15.5616 20.9442 18.2529 18.2529L3.16792 3.16792ZM8.10526 1.12281C9.95713 1.12281 11.7331 1.85846 13.0426 3.16792L-2.04234 18.2529C0.648972 20.9442 4.29917 22.4561 8.10526 22.4561V1.12281ZM13.0426 3.16792C14.3521 4.47739 15.0877 6.2534 15.0877 8.10526H-6.24561C-6.24561 11.9114 -4.73365 15.5616 -2.04234 18.2529L13.0426 3.16792ZM15.0877 8.10526C15.0877 9.95713 14.3521 11.7331 13.0426 13.0426L-2.04234 -2.04234C-4.73365 0.648972 -6.24561 4.29917 -6.24561 8.10526H15.0877ZM13.0426 13.0426C11.7331 14.3521 9.95713 15.0877 8.10526 15.0877V-6.24561C4.29917 -6.24561 0.648972 -4.73365 -2.04234 -2.04234L13.0426 13.0426ZM8.10526 -4.77193C4.69002 -4.77193 1.41466 -3.41523 -1.00029 -1.00029L14.0847 14.0847C12.4988 15.6705 10.348 16.5614 8.10526 16.5614V-4.77193ZM-1.00029 -1.00029C-3.41523 1.41466 -4.77193 4.69002 -4.77193 8.10526H16.5614C16.5614 10.348 15.6705 12.4988 14.0847 14.0847L-1.00029 -1.00029ZM-4.77193 8.10526C-4.77193 11.5205 -3.41523 14.7959 -1.00029 17.2108L14.0847 2.12587C15.6705 3.71171 16.5614 5.86256 16.5614 8.10526H-4.77193ZM-1.00029 17.2108C1.41466 19.6258 4.69002 20.9825 8.10526 20.9825V-0.350878C10.348 -0.350878 12.4988 0.540031 14.0847 2.12587L-1.00029 17.2108ZM8.10526 20.9825C11.5205 20.9825 14.7959 19.6258 17.2108 17.2108L2.12587 2.12587C3.71171 0.540031 5.86256 -0.350878 8.10526 -0.350878V20.9825ZM17.2108 17.2108C19.6258 14.7959 20.9825 11.5205 20.9825 8.10526H-0.350878C-0.350878 5.86256 0.540031 3.71171 2.12587 2.12587L17.2108 17.2108ZM20.9825 8.10526C20.9825 4.69002 19.6258 1.41466 17.2108 -1.00029L2.12587 14.0847C0.540031 12.4988 -0.350878 10.348 -0.350878 8.10526H20.9825ZM17.2108 -1.00029C14.7959 -3.41523 11.5205 -4.77193 8.10526 -4.77193V16.5614C5.86256 16.5614 3.71171 15.6705 2.12587 14.0847L17.2108 -1.00029Z" fill="white" mask="url(#path-1-inside-1_243_110)"/>
</svg>
