<svg width="23" height="24" viewBox="0 0 23 24" fill="none" xmlns="http://www.w3.org/2000/svg">
<path d="M7.19546 8.7672L7.40567 8.63187C7.33836 8.52733 7.29581 8.39086 7.27323 8.16119C7.25028 7.92771 7.25 7.62623 7.25 7.2C7.25 5.49638 7.25049 4.24262 7.37501 3.28204C7.49871 2.3277 7.74085 1.70066 8.19655 1.22839L8.19675 1.22819C8.65071 0.756657 9.25114 0.507189 10.1665 0.379451C11.09 0.250571 12.2962 0.25 13.9396 0.25H15.0962C16.7389 0.25 17.9449 0.25087 18.8684 0.379895C19.7837 0.507782 20.3846 0.757273 20.8392 1.22839C21.2949 1.70066 21.5371 2.3277 21.6608 3.28204C21.7853 4.24262 21.7858 5.49638 21.7858 7.2V16.8C21.7858 18.5036 21.7853 19.7574 21.6608 20.718C21.5371 21.6723 21.2949 22.2993 20.8392 22.7716L20.8391 22.7717C20.3845 23.2434 19.784 23.4928 18.8687 23.6206C17.9452 23.7494 16.7389 23.75 15.095 23.75H13.9384C12.2957 23.75 11.0897 23.7494 10.1663 23.6206C9.25115 23.4928 8.65071 23.2433 8.19675 22.7718L8.19655 22.7716C7.74085 22.2993 7.49871 21.6723 7.37501 20.718C7.25049 19.7574 7.25 18.5036 7.25 16.8C7.25 16.3738 7.25028 16.0723 7.27323 15.8388C7.29581 15.6091 7.33836 15.4727 7.40567 15.3681L7.40585 15.3678C7.47238 15.2642 7.55749 15.1757 7.65596 15.1071C7.75396 15.0397 7.88185 14.9968 8.1002 14.9738C8.32365 14.9503 8.61271 14.95 9.02405 14.95H13.9396C14.6991 14.95 15.4256 14.6369 15.9597 14.0827C16.4936 13.5288 16.7919 12.7795 16.7919 12C16.7919 11.2205 16.4936 10.4712 15.9597 9.91732C15.4256 9.36313 14.6991 9.05 13.9396 9.05H9.02405C8.61268 9.05 8.32371 9.04967 8.10035 9.02604C7.88174 9.0029 7.75394 8.95965 7.65594 8.89172C7.55744 8.82331 7.47224 8.7351 7.40556 8.63171L7.19546 8.7672ZM7.19546 8.7672C7.27965 8.89774 7.38771 9.00986 7.51353 9.0972L7.19546 15.2328C7 15.5364 7 15.9576 7 16.8C7 20.1936 7 21.8916 8.01665 22.9452C9.03214 24 10.6676 24 13.9384 24H15.095C18.3682 24 20.0025 24 21.0191 22.9452C22.0358 21.8916 22.0358 20.1936 22.0358 16.8V7.2C22.0358 3.8064 22.0358 2.1084 21.0191 1.0548C20.0025 0.00119996 18.367 0 15.0962 0H13.9396C10.6676 0 9.03214 0 8.01665 1.0548C7 2.1084 7 3.8064 7 7.2V7.20001C7 8.0424 7 8.4636 7.19546 8.7672ZM2.31168 11.025L1.8946 11.4501H2.49013H12.3276C12.4242 11.4501 12.5278 11.4954 12.6117 11.5952C12.6967 11.6964 12.75 11.8415 12.75 12C12.75 12.1585 12.6967 12.3036 12.6117 12.4048C12.5278 12.5046 12.4242 12.5499 12.3276 12.5499H2.49102H1.89571L2.31253 12.975L4.0697 14.7668L4.06981 14.7669C4.15922 14.858 4.22163 14.9961 4.23193 15.1541C4.24222 15.3121 4.19858 15.4633 4.11879 15.5741C4.03972 15.684 3.93697 15.7397 3.83973 15.7487C3.74345 15.7575 3.63948 15.722 3.55159 15.6325L0.413882 12.4329L0.413679 12.4327C0.365355 12.3835 0.324002 12.3198 0.29481 12.2444C0.265622 12.169 0.25 12.0855 0.25 12C0.25 11.9145 0.265622 11.831 0.29481 11.7556C0.324002 11.6802 0.365355 11.6165 0.413679 11.5673L0.413882 11.5671L3.55159 8.36752C3.59543 8.32286 3.64369 8.29148 3.69251 8.27253C3.74113 8.25366 3.7909 8.24683 3.83973 8.25134C3.88862 8.25585 3.93832 8.27189 3.98608 8.30076C4.03402 8.32973 4.07967 8.37149 4.11879 8.42586C4.15795 8.48027 4.18919 8.54545 4.20914 8.61821C4.22909 8.69096 4.23697 8.76846 4.23193 8.8459C4.22688 8.92334 4.20911 8.99772 4.18054 9.06461C4.15197 9.13151 4.11374 9.18836 4.06981 9.2331L4.06975 9.23316L2.31168 11.025Z" stroke="white" stroke-width="0.5"/>
</svg>
