<svg width="24" height="26" viewBox="0 0 24 26" fill="none" xmlns="http://www.w3.org/2000/svg">
    <path d="M8.19546 9.7672L8.40567 9.63187M8.19546 9.7672C8.27965 9.89774 9.07073 9.9472 9.19655 10.0345M8.19546 9.7672C8 9.4636 8 9.04239 8 8.2C8 4.8064 8 3.1084 9.01665 2.0548C10.0321 1 11.6676 1 14.9396 1H16.0962C19.367 1 21.0025 1.0012 22.0191 2.0548C23.0358 3.1084 23.0358 4.8064 23.0358 8.2V17.8C23.0358 21.1936 23.0358 22.8916 22.0191 23.9452C21.0025 25 19.3682 25 16.095 25H14.9384C11.6676 25 10.0321 25 9.01665 23.9452C8 22.8916 8 21.1936 8 17.8C8 16.9576 8.21021 16.6717 8.40567 16.3681M8.40567 9.63187C8.33836 9.52733 8.29581 9.39086 8.27323 9.16119C8.25028 8.92771 8.25 8.62623 8.25 8.2C8.25 6.49638 8.25049 5.24262 8.37501 4.28204C8.49871 3.3277 8.74085 2.70066 9.19655 2.22839C9.65051 1.75686 10.2511 1.50719 11.1665 1.37945C12.09 1.25057 13.2962 1.25 14.9396 1.25H16.0962C17.7389 1.25 18.9449 1.25087 19.8684 1.3799C20.7837 1.50778 21.3846 1.75727 21.8392 2.22839C22.2949 2.70066 22.5371 3.3277 22.6608 4.28204C22.7853 5.24262 22.7858 6.49638 22.7858 8.2V17.8C22.7858 19.5036 22.7853 20.7574 22.6608 21.718C22.5371 22.6723 22.2949 23.2993 21.8392 23.7716C21.3846 24.2433 20.784 24.4928 19.8687 24.6206C18.9452 24.7494 17.7389 24.75 16.095 24.75H14.9384C13.2957 24.75 12.0897 24.7494 11.1663 24.6206C10.2511 24.4928 9.65071 24.2433 9.19675 23.7718C8.74105 23.2995 8.49871 22.6723 8.37501 21.718C8.25049 20.7574 8.25 19.5036 8.25 17.8C8.25 17.3738 8.25028 17.0723 8.27323 16.8388C8.29581 16.6091 8.33836 16.4727 8.40567 16.3681M8.40567 9.63187C8.47235 9.73526 8.55744 9.82331 8.65594 9.89172C8.75394 9.95965 8.88174 10.0029 9.10035 10.026C9.32371 10.0497 9.61268 10.05 10.024 10.05H14.9396C15.6991 10.05 16.4256 10.3631 16.9597 10.9173C17.4936 11.4712 17.7919 12.2205 17.7919 13C17.7919 13.7795 17.4936 14.5288 16.9597 15.0827C16.4256 15.6369 15.6991 15.95 14.9396 15.95H10.024C9.61271 15.95 9.32365 15.9503 9.1002 15.9738C8.88185 15.9968 8.75396 16.0397 8.65596 16.1071C8.55749 16.1757 8.4722 16.2645 8.40567 16.3681M3.31168 12.025L2.8946 12.4501H3.49013H13.3276C13.4242 12.4501 13.5278 12.4954 13.6117 12.5952C13.6967 12.6964 13.75 12.8415 13.75 13C13.75 13.1585 13.6967 13.3036 13.6117 13.4048C13.5278 13.5046 13.4242 13.5499 13.3276 13.5499H3.49102H2.89571L3.31253 13.975L5.0697 15.7668C5.15911 15.8579 5.22163 15.9961 5.23193 16.1541C5.24222 16.3121 5.19858 16.4633 5.11879 16.5741C5.03972 16.684 4.93697 16.7397 4.83973 16.7487C4.74345 16.7575 4.63948 16.722 4.55159 16.6325L1.41388 13.4329C1.36556 13.3837 1.324 13.3198 1.29481 13.2444C1.26562 13.169 1.25 13.0855 1.25 13C1.25 12.9145 1.26562 12.831 1.29481 12.7556C1.324 12.6802 1.36536 12.6165 1.41368 12.5673L4.55159 9.36752C4.59543 9.32286 4.64369 9.29148 4.69251 9.27253C4.74113 9.25366 4.7909 9.24683 4.83973 9.25134C4.88862 9.25585 4.93832 9.27189 4.98608 9.30076C5.03402 9.32973 5.07967 9.37149 5.11879 9.42586C5.15795 9.48027 5.18919 9.54545 5.20914 9.61821C5.22909 9.69096 5.23697 9.76846 5.23193 9.8459C5.22688 9.92334 5.20911 9.99772 5.18054 10.0646C5.15197 10.1315 5.11374 10.1884 5.06981 10.2331L3.31168 12.025Z" stroke="white"/>
</svg>
