<svg width="34" height="40" viewBox="0 0 34 40" fill="none" xmlns="http://www.w3.org/2000/svg">
<path d="M17 2.56492e-09C14.0372 2.56493e-09 11.1957 1.18205 9.10061 3.28612C7.00556 5.39019 5.82857 8.24391 5.82857 11.2195V17.0732C5.82431 19.9248 6.90136 22.671 8.84083 24.7537C10.7803 26.8363 13.4366 28.0992 16.2699 28.2855C19.1032 28.4719 21.9009 27.5678 24.0942 25.7569C26.2876 23.9461 27.7121 21.3644 28.0782 18.5366H18.9429C18.5564 18.5366 18.1858 18.3824 17.9125 18.108C17.6392 17.8335 17.4857 17.4613 17.4857 17.0732C17.4857 16.685 17.6392 16.3128 17.9125 16.0384C18.1858 15.7639 18.5564 15.6098 18.9429 15.6098H28.1714V12.6829H18.9429C18.5564 12.6829 18.1858 12.5287 17.9125 12.2543C17.6392 11.9799 17.4857 11.6076 17.4857 11.2195C17.4857 10.8314 17.6392 10.4592 17.9125 10.1847C18.1858 9.91028 18.5564 9.7561 18.9429 9.7561H28.0762C27.7227 7.05719 26.4042 4.57942 24.3664 2.7845C22.3286 0.989577 19.7105 -5.81686e-05 17 2.56492e-09Z" fill="white" fill-opacity="0.75"/>
<path fill-rule="evenodd" clip-rule="evenodd" d="M1.45714 13.6585C1.8436 13.6585 2.21423 13.8127 2.4875 14.0872C2.76077 14.3616 2.91429 14.7338 2.91429 15.122V17.0732C2.91429 18.9309 3.27862 20.7704 3.9865 22.4867C4.69437 24.2031 5.73192 25.7625 7.0399 27.0761C8.34788 28.3898 9.90067 29.4318 11.6096 30.1427C13.3186 30.8536 15.1502 31.2195 17 31.2195C18.8498 31.2195 20.6814 30.8536 22.3904 30.1427C24.0993 29.4318 25.6521 28.3898 26.9601 27.0761C28.2681 25.7625 29.3056 24.2031 30.0135 22.4867C30.7214 20.7704 31.0857 18.9309 31.0857 17.0732V15.122C31.0857 14.7338 31.2392 14.3616 31.5125 14.0872C31.7858 13.8127 32.1564 13.6585 32.5429 13.6585C32.9293 13.6585 33.2999 13.8127 33.5732 14.0872C33.8465 14.3616 34 14.7338 34 15.122V17.0732C34.0001 21.348 32.4034 25.4673 29.5255 28.617C26.6477 31.7667 22.698 33.7175 18.4571 34.0839V38.5366C18.4571 38.9247 18.3036 39.2969 18.0304 39.5714C17.7571 39.8458 17.3865 40 17 40C16.6135 40 16.2429 39.8458 15.9696 39.5714C15.6964 39.2969 15.5429 38.9247 15.5429 38.5366V34.0839C11.302 33.7175 7.35235 31.7667 4.47446 28.617C1.59658 25.4673 -9.83146e-05 21.348 4.5404e-09 17.0732V15.122C4.5404e-09 14.7338 0.15352 14.3616 0.426787 14.0872C0.700054 13.8127 1.07068 13.6585 1.45714 13.6585Z" fill="white" fill-opacity="0.75"/>
</svg>
