<svg width="409" height="507" viewBox="0 0 409 507" fill="none" xmlns="http://www.w3.org/2000/svg">
<path d="M345.37 493.081C345.07 494.521 342.97 496.081 338.53 497.761C307.45 509.611 270.7 505.951 238.72 506.011C178.66 506.131 118.57 503.581 58.5701 503.581C21.1001 501.091 -22.4899 494.791 14.5901 486.151C56.8001 476.311 102.58 477.751 145.24 476.611C183.91 475.561 222.61 476.341 261.25 478.891C267.79 479.341 346.9 485.101 345.37 493.081Z" fill="white" fill-opacity="0.72"/>
<path d="M189.503 494.593C200.24 493.903 264.824 497.113 298.913 489.316C318.089 484.93 323.087 475.933 327.098 469.807C327.134 469.75 334.265 458.563 337.427 449.872C340.589 441.181 342.488 433.579 343.049 432.31C346.091 425.428 350.84 399.928 351.455 384.817C351.494 383.848 353.375 364.885 353.456 363.919C355.373 341.047 356.303 318.007 356.741 299.38C357.299 275.716 357.065 259.18 357.065 259.18C357.065 259.18 94.4722 259.024 84.1162 256.981C84.1162 256.981 88.8322 306.826 89.3362 342.253C89.8402 377.68 90.6082 408.256 90.6082 408.256C90.6082 408.256 90.8392 430.18 84.7372 446.257C81.3382 457.18 77.8402 472.18 63.3682 478.756C49.6162 484.687 38.9512 484.699 38.9512 484.699L81.3592 490.228L189.503 494.593Z" fill="#078572" fill-opacity="0.99"/>
<path d="M304.708 487.113C252.958 505.983 273.448 339.123 286.378 275.343C197.638 274.983 95.398 274.293 6.65801 273.963C6.65801 273.963 3.84401 284.772 1.65701 325.683C-0.16099 359.682 -2.16199 392.181 5.626 440.751C7.57301 452.904 14.578 470.493 24.058 478.353C30.688 483.873 39.658 485.493 48.178 486.843C58.108 488.433 68.098 489.453 78.118 490.293C90.538 491.343 102.988 492.063 115.468 492.603C129.238 493.233 143.008 493.653 156.808 493.893C170.818 494.163 184.798 494.253 198.808 494.193C211.918 494.163 224.998 493.983 238.108 493.593C249.178 493.293 260.248 492.873 271.288 492.153C282.058 491.493 292.918 491.493 303.208 487.713L304.708 487.113Z" fill="#00DAB9"/>
<path d="M84.8389 257.181L355.839 260.431C355.839 260.431 354.839 361.681 350.589 381.931C348.589 412.181 343.589 429.181 340.589 439.431C337.131 451.246 331.589 461.431 327.339 467.681C322.339 475.431 313.089 484.931 303.089 487.181C291.44 489.802 284.391 482.143 280.339 476.681C274.589 468.931 272.089 453.681 270.839 439.181C269.038 418.293 273.589 367.931 272.839 378.181C273.339 365.681 280.589 308.681 280.589 308.681L285.714 275.556" stroke="#00DAB9" stroke-width="3"/>
<path d="M128.719 233.216L128.719 233.217C128.939 233.963 129.156 234.649 129.353 235.269L129.392 235.39C129.574 235.965 129.737 236.476 129.872 236.938C130.175 237.976 130.278 238.574 130.236 238.914C130.228 238.982 130.216 239.018 130.209 239.034C130.206 239.041 130.204 239.044 130.204 239.045L130.203 239.045L130.202 239.047C130.201 239.048 130.199 239.049 130.196 239.051C130.191 239.055 130.181 239.062 130.164 239.07C130.129 239.088 130.068 239.113 129.967 239.135C129.527 239.232 128.719 239.212 127.316 238.971C127.274 238.95 127.222 238.924 127.159 238.892C126.97 238.797 126.688 238.652 126.319 238.459C125.583 238.072 124.502 237.488 123.135 236.704C120.4 235.136 116.517 232.768 111.945 229.576C102.798 223.193 90.9033 213.524 79.9032 200.386C57.9227 174.133 39.501 134.024 53.7372 78.4518C55.5262 71.4816 62.4309 57.3711 74.681 43.0782C86.9136 28.8056 104.409 14.4312 127.318 6.82899C150.232 -0.770238 180.165 -0.0690802 207.496 3.98781C234.814 8.04282 259.359 15.4231 271.433 21.045C279.902 24.9951 291.946 32.2215 303.352 40.3034C314.773 48.3954 325.453 57.2747 331.257 64.5112L331.257 64.5114C342.177 78.1181 348.952 91.6685 351.195 105.772C353.438 119.867 351.17 134.602 343.857 150.611C326.521 188.518 291.554 205.392 270.047 205.71C250.294 206.003 230.511 204.449 211.022 201.079C206.648 200.322 202.269 199.494 197.881 198.664C182.596 195.773 167.202 192.862 151.581 192.862C138.442 192.862 130.175 194.931 125.279 198.3C120.282 201.738 118.912 206.445 119.359 211.242C119.8 215.962 121.994 220.807 124.12 224.771C124.948 226.314 125.779 227.748 126.502 228.997C126.712 229.358 126.912 229.703 127.101 230.032C127.973 231.549 128.539 232.606 128.719 233.216Z" fill="white" stroke="#373737" stroke-width="2"/>
<path d="M378.45 165.852L378.451 165.852C384.334 168.482 387.753 175.026 389.677 181.723C387.947 188.64 381.874 195.222 373.193 201.05C364.442 206.926 353.208 211.922 341.637 215.645C330.068 219.366 318.21 221.799 308.229 222.571C303.237 222.958 298.74 222.927 294.996 222.446C291.232 221.961 288.324 221.032 286.43 219.697L286.429 219.697C285.309 218.908 285.167 218.466 285.165 218.329C285.162 218.218 285.255 217.851 286.211 217.186C287.103 216.567 288.463 215.882 290.296 215.054C291.423 214.546 292.694 213.999 294.107 213.39C294.984 213.012 295.917 212.61 296.904 212.179C307.179 207.695 322.799 200.306 339.489 185.515L339.489 185.514C342.46 182.88 344.925 180.641 347.039 178.721C355.647 170.902 358.441 168.364 365.913 165.901L365.916 165.9C370.086 164.512 374.809 164.224 378.45 165.852Z" fill="white" stroke="#373737" stroke-width="2"/>
<path d="M51.7062 188.755L51.7011 188.752C49.1948 187.105 46.1632 186.036 43.6093 186.29C39.5909 186.695 36.5196 189.781 34.3491 193.332C34.5691 197.672 37.5637 202.718 42.4259 207.897C47.3558 213.148 54.0469 218.367 61.1464 222.889C68.2435 227.41 75.7088 231.211 82.1658 233.64C85.3951 234.855 88.3505 235.719 90.8676 236.163C93.4084 236.612 95.4003 236.614 96.7603 236.205L96.7642 236.204C97.1129 236.101 97.3275 236.003 97.4506 235.926C97.4115 235.852 97.3369 235.734 97.1951 235.563C96.8202 235.109 96.176 234.527 95.2397 233.77C94.4474 233.13 93.4911 232.4 92.3832 231.555C92.1971 231.413 92.0068 231.267 91.8121 231.119C86.4128 226.994 78.0566 220.481 69.6262 210.052C68.8403 209.08 68.057 208.076 67.2738 207.037L67.2734 207.036C66.9573 206.617 66.6391 206.189 66.3227 205.759L66.3203 205.755C64.7493 203.601 63.451 201.78 62.3368 200.218C57.7351 193.764 56.2741 191.716 51.7062 188.755Z" fill="white" stroke="#373737" stroke-width="2"/>
<path d="M119.839 415.45C123.001 420.428 138.729 437.298 158.432 416.348" stroke="white" stroke-width="4" stroke-linecap="round"/>
<path d="M163.464 387.556C163.464 387.556 170.214 399.431 183.839 388.056" stroke="white" stroke-width="4" stroke-linecap="round"/>
<path d="M96.5889 387.556C96.5889 387.556 103.339 399.431 116.964 388.056" stroke="white" stroke-width="4" stroke-linecap="round" stroke-linejoin="round"/>
<path d="M75.0515 384.269C79.9139 384.269 83.8618 390.07 83.8618 397.216C83.8618 404.361 79.9139 410.163 75.0515 410.163C70.1891 410.163 66.2412 404.361 66.2412 397.216C66.2412 390.07 70.1891 384.269 75.0515 384.269Z" fill="#CBCBCB"/>
<path d="M205.362 386.144C210.224 386.144 214.172 391.945 214.172 399.091C214.172 406.236 210.224 412.038 205.362 412.038C200.5 412.038 196.552 406.236 196.552 399.091C196.552 391.945 200.5 386.144 205.362 386.144Z" fill="#CBCBCB"/>
<path d="M260.474 65.5423C263.811 69.2233 267.257 72.8415 270.269 76.9001C271.056 76.4281 271.87 75.9247 272.657 75.4528C270.35 74.037 266.28 79.5114 264.924 80.8957C260.908 85.0172 256.971 89.2961 253.091 93.5749C241.289 106.537 230.897 121.167 222.214 137.118C216.408 147.784 211.391 159.016 207.077 170.594C206.507 172.072 209.275 171.758 209.655 170.72C216.628 152.063 225.473 134.381 236.272 118.367C243.896 107.072 252.576 97.0357 261.638 87.314C263.727 85.0802 265.817 82.8778 267.96 80.707C268.774 79.8575 269.618 79.0395 270.486 78.2215C270.785 77.9383 271.219 77.6551 271.463 77.3405C272.223 76.3023 272.41 78.2529 270.456 77.0574C271.053 77.4349 273.658 76.7113 272.844 75.6101C269.832 71.583 266.389 67.9334 263.025 64.2523C262.292 63.4658 259.66 64.6928 260.474 65.5423Z" fill="#373737"/>
<path d="M245.454 50.6143C250.524 53.9443 255.564 57.3643 260.424 60.9943C261.114 60.3643 261.774 59.7343 262.464 59.1043C260.694 58.5043 259.284 60.2743 258.294 61.4743C256.104 64.0243 254.184 66.8143 252.234 69.5443C247.794 75.7843 243.414 82.1143 239.304 88.5943C225.774 109.744 215.604 132.514 207.744 156.334C205.794 162.214 204.054 168.154 202.224 174.064C203.094 173.824 203.994 173.584 204.864 173.344C203.754 172.744 202.644 172.144 201.534 171.544C200.394 170.914 197.694 172.504 199.194 173.314C200.304 173.914 201.384 174.514 202.524 175.114C203.244 175.534 204.864 175.414 205.164 174.424C209.454 160.414 214.014 146.554 219.444 132.934C227.514 112.534 238.614 93.8143 251.034 75.8443C253.014 72.9643 255.024 70.0843 257.064 67.2943C258.114 65.8843 259.164 64.4743 260.244 63.0943C260.604 62.6443 261.054 62.2243 261.384 61.7443C262.254 60.5143 262.464 61.7143 260.694 61.1443C261.684 61.4743 264.204 60.3043 262.764 59.2243C257.904 55.5943 252.894 52.1743 247.824 48.8443C246.684 48.1243 244.014 49.6843 245.454 50.6143Z" fill="#373737"/>
<path d="M171.002 15.6719C142.502 40.6719 120.502 109.672 123.002 143.172C145.502 153.672 195.502 175.672 195.502 175.672C195.502 175.672 205.502 121.172 244.002 45.1719C206.502 31.6719 179.002 22.1719 171.002 15.6719Z" fill="white"/>
<path d="M171.002 15.6719C142.502 40.6719 120.502 109.672 123.002 143.172C145.502 153.672 195.502 175.672 195.502 175.672C195.502 175.672 205.502 121.172 244.002 45.1719C206.502 31.6719 179.002 22.1719 171.002 15.6719Z" fill="white" stroke="#808080" stroke-width="2"/>
<path d="M213.918 111.023C206.238 132.383 199.998 154.203 194.538 176.223C195.438 175.883 196.368 175.583 197.298 175.293C177.678 166.443 158.118 157.103 138.048 149.393C135.198 148.313 132.378 147.213 129.558 146.063C127.968 145.403 124.188 144.453 123.678 142.793C123.378 141.773 123.858 140.073 123.948 139.013C124.038 137.753 124.128 136.473 124.248 135.213C124.488 132.503 124.758 129.843 125.088 127.203C125.718 122.073 126.528 116.963 127.488 111.873C133.038 82.5225 144.108 53.9425 160.578 28.9825C163.578 24.3825 166.728 19.7725 170.388 15.6525C169.488 15.8925 168.618 16.1325 167.718 16.3725C188.718 27.8325 212.088 34.8525 234.468 43.1025C236.718 43.9125 238.938 44.8725 241.218 45.6225C242.328 46.0225 242.028 45.2725 241.728 46.3725C241.158 48.6025 239.658 50.8725 238.698 52.9825C234.738 61.6425 230.838 70.3225 227.028 79.0425C222.408 89.6025 217.818 100.203 213.918 111.023ZM213.918 111.023C213.558 111.983 216.618 111.593 216.978 110.603M213.918 111.023C214.248 110.033 217.308 109.643 216.978 110.603M216.978 110.603C225.048 88.3225 235.158 66.6525 245.148 45.1825C245.268 44.9725 245.028 44.7325 244.848 44.6625C220.008 34.8825 193.698 27.7825 170.178 14.9025C169.398 14.4925 168.078 15.0025 167.538 15.6225C156.708 27.8925 148.518 43.1625 141.738 57.9325C134.418 73.8925 128.898 90.6825 125.298 107.883C123.168 118.103 121.698 128.463 120.918 138.863C120.678 141.933 119.628 143.973 122.448 145.443C124.998 146.763 127.758 147.783 130.458 148.853C152.208 157.443 173.508 167.093 194.838 176.733C195.558 177.053 197.358 176.733 197.598 175.803C203.058 153.783 209.298 131.973 216.978 110.603Z" stroke="#373737" stroke-width="2"/>
<path d="M122.416 138.979C122.597 136.553 122.817 134.13 123.074 131.71C122.961 132.826 122.856 133.946 122.756 135.07C122.642 136.268 122.555 137.491 122.471 138.671L122.454 138.899C122.438 139.086 122.403 139.321 122.354 139.622C122.377 139.415 122.398 139.201 122.415 138.985L122.416 138.979ZM122.035 142.665C122.019 142.374 122.041 142.036 122.093 141.603C122.065 142.124 122.086 142.696 122.241 143.22L122.244 143.23L122.247 143.24C122.28 143.348 122.319 143.452 122.363 143.551C122.31 143.494 122.27 143.442 122.239 143.394C122.127 143.225 122.054 143.013 122.035 142.665Z" fill="#373737" fill-opacity="0.25" stroke="#373737" stroke-width="3"/>
<path d="M171.252 44.1719L188.252 50.6719Z" fill="white"/>
<path d="M171.252 44.1719L188.252 50.6719" stroke="#373737" stroke-width="3" stroke-linecap="round"/>
<mask id="path-22-inside-1_288_2" fill="white">
<path d="M202.752 68.1719C202.752 68.1719 201.154 65.5359 200.859 62.4839C200.609 59.8959 201.437 57.007 203.502 55.1719C205.487 53.4079 209.005 51.7469 212.499 51.826C216.927 51.9259 221.444 54.3249 222.502 57.9219C225.002 66.4219 216.252 72.4219 209.252 71.1719"/>
</mask>
<path d="M200.859 62.4839L199.863 62.5801L199.863 62.5802L200.859 62.4839ZM203.502 55.1719L204.166 55.9195L204.166 55.9194L203.502 55.1719ZM212.499 51.826L212.476 52.8257L212.476 52.8257L212.499 51.826ZM222.502 57.9219L223.461 57.6398L223.461 57.6398L222.502 57.9219ZM202.752 68.1719C203.607 67.6535 203.607 67.6537 203.607 67.6539C203.607 67.6539 203.607 67.6541 203.607 67.6541C203.607 67.6543 203.607 67.6544 203.607 67.6545C203.607 67.6547 203.607 67.6547 203.607 67.6545C203.607 67.6542 203.607 67.6533 203.606 67.6518C203.604 67.6487 203.601 67.6431 203.596 67.6352C203.587 67.6193 203.572 67.5938 203.552 67.5593C203.513 67.4902 203.455 67.3852 203.383 67.2484C203.24 66.9745 203.043 66.5755 202.838 66.0857C202.424 65.0984 201.988 63.7787 201.854 62.3877L199.863 62.5802C200.024 64.2412 200.535 65.7655 200.994 66.8592C201.225 67.4099 201.446 67.8607 201.612 68.1764C201.694 68.3344 201.763 68.4591 201.813 68.5461C201.837 68.5897 201.857 68.6238 201.871 68.648C201.878 68.6601 201.884 68.6697 201.888 68.6768C201.891 68.6804 201.892 68.6833 201.894 68.6855C201.894 68.6866 201.895 68.6876 201.895 68.6884C201.896 68.6888 201.896 68.6892 201.896 68.6895C201.896 68.6897 201.896 68.6899 201.896 68.69C201.896 68.6902 201.897 68.6903 202.752 68.1719ZM201.854 62.3878C201.628 60.0462 202.389 57.4986 204.166 55.9195L202.837 54.4244C200.485 56.5153 199.59 59.7457 199.863 62.5801L201.854 62.3878ZM204.166 55.9194C205.994 54.295 209.274 52.7533 212.476 52.8257L212.521 50.8262C208.735 50.7406 204.98 52.5208 202.837 54.4245L204.166 55.9194ZM212.476 52.8257C214.527 52.872 216.596 53.4531 218.259 54.4257C219.928 55.402 221.106 56.7212 221.542 58.2041L223.461 57.6398C222.839 55.5257 221.23 53.8469 219.269 52.6994C217.301 51.5483 214.898 50.8799 212.521 50.8262L212.476 52.8257ZM221.542 58.2041C222.666 62.0239 221.284 65.2602 218.781 67.4506C216.242 69.6719 212.607 70.7553 209.427 70.1875L209.076 72.1564C212.896 72.8386 217.136 71.547 220.098 68.9558C223.094 66.3337 224.838 62.32 223.461 57.6398L221.542 58.2041Z" fill="#E8E8E8" mask="url(#path-22-inside-1_288_2)"/>
<path d="M202.752 68.1719C202.752 68.1719 201.154 65.5359 200.859 62.4839C200.609 59.8959 201.437 57.007 203.502 55.1719C205.487 53.4079 209.005 51.7469 212.499 51.826C216.927 51.9259 221.444 54.3249 222.502 57.9219C225.002 66.4219 216.252 72.4219 209.252 71.1719" stroke="#373737" stroke-width="3" stroke-linecap="round"/>
<path d="M157.502 65.6719L206.752 85.9219Z" fill="white"/>
<path d="M157.502 65.6719L206.752 85.9219" stroke="#373737" stroke-width="3" stroke-linecap="round"/>
<path d="M149.752 80.1719L198.252 100.922Z" fill="white"/>
<path d="M149.752 80.1719L198.252 100.922" stroke="#373737" stroke-width="3" stroke-linecap="round"/>
<path d="M145.502 96.6719L194.252 118.172Z" fill="white"/>
<path d="M145.502 96.6719L194.252 118.172" stroke="#373737" stroke-width="3" stroke-linecap="round"/>
<path d="M141.752 112.922L189.502 132.922Z" fill="white"/>
<path d="M141.752 112.922L189.502 132.922" stroke="#373737" stroke-width="3" stroke-linecap="round"/>
<path d="M163.252 144.422L186.502 154.672Z" fill="white"/>
<path d="M163.252 144.422L186.502 154.672" stroke="#373737" stroke-width="3" stroke-linecap="round"/>
</svg>
