<svg width="40" height="39" viewBox="0 0 40 39" fill="none" xmlns="http://www.w3.org/2000/svg">
<path d="M9.14286 8.92857H11.8571M11.8571 8.92857C11.8571 9.6295 12.1431 10.3017 12.6521 10.7974C13.1612 11.293 13.8516 11.5714 14.5714 11.5714C14.9279 11.5714 15.2808 11.5031 15.6101 11.3703C15.9395 11.2374 16.2387 11.0428 16.4907 10.7974C16.7428 10.5519 16.9427 10.2606 17.0791 9.93995C17.2155 9.6193 17.2857 9.27564 17.2857 8.92857M11.8571 8.92857C11.8571 8.22764 12.1431 7.55542 12.6521 7.05979C13.1612 6.56416 13.8516 6.28571 14.5714 6.28571C14.9279 6.28571 15.2808 6.35407 15.6101 6.48689C15.9395 6.61971 16.2387 6.81438 16.4907 7.05979C16.7428 7.3052 16.9427 7.59655 17.0791 7.91719C17.2155 8.23784 17.2857 8.58151 17.2857 8.92857M17.2857 8.92857H30.8571M30.8571 19.5H28.1429M28.1429 19.5C28.1429 20.2009 27.8569 20.8731 27.3479 21.3688C26.8388 21.8644 26.1484 22.1429 25.4286 22.1429C24.7087 22.1429 24.0183 21.8644 23.5093 21.3688C23.0003 20.8731 22.7143 20.2009 22.7143 19.5M28.1429 19.5C28.1429 18.7991 27.8569 18.1268 27.3479 17.6312C26.8388 17.1356 26.1484 16.8571 25.4286 16.8571C24.7087 16.8571 24.0183 17.1356 23.5093 17.6312C23.0003 18.1268 22.7143 18.7991 22.7143 19.5M22.7143 19.5H9.14286M9.14286 30.0714H11.8571M11.8571 30.0714C11.8571 30.7724 12.1431 31.4446 12.6521 31.9402C13.1612 32.4358 13.8516 32.7143 14.5714 32.7143C14.9279 32.7143 15.2808 32.6459 15.6101 32.5131C15.9395 32.3803 16.2387 32.1856 16.4907 31.9402C16.7428 31.6948 16.9427 31.4035 17.0791 31.0828C17.2155 30.7622 17.2857 30.4185 17.2857 30.0714M11.8571 30.0714C11.8571 29.3705 12.1431 28.6983 12.6521 28.2026C13.1612 27.707 13.8516 27.4286 14.5714 27.4286C14.9279 27.4286 15.2808 27.4969 15.6101 27.6297C15.9395 27.7626 16.2387 27.9572 16.4907 28.2026C16.7428 28.4481 16.9427 28.7394 17.0791 29.06C17.2155 29.3807 17.2857 29.7244 17.2857 30.0714M17.2857 30.0714H30.8571M6.42857 1H33.5714C36.5789 1 39 3.35743 39 6.28571V32.7143C39 35.6426 36.5789 38 33.5714 38H6.42857C3.42114 38 1 35.6426 1 32.7143V6.28571C1 3.35743 3.42114 1 6.42857 1Z" stroke="url(#paint0_linear_108_71)" stroke-opacity="0.7" stroke-width="2" stroke-linecap="round" stroke-linejoin="round"/>
<defs>
<linearGradient id="paint0_linear_108_71" x1="20" y1="1" x2="20" y2="38" gradientUnits="userSpaceOnUse">
<stop stop-color="#00DAB9"/>
<stop offset="1" stop-color="#2BCEEF"/>
</linearGradient>
</defs>
</svg>
