<svg width="26" height="26" viewBox="0 0 26 26" fill="none" xmlns="http://www.w3.org/2000/svg">
<path d="M6.17068 18.4539H3.63412C3.53062 18.4539 3.43136 18.4999 3.35818 18.5817C3.285 18.6635 3.24389 18.7745 3.24389 18.8903V19.6539C3.24389 19.7112 3.25398 19.7679 3.27359 19.8208C3.2932 19.8738 3.32195 19.9219 3.35818 19.9624C3.39442 20.0029 3.43744 20.0351 3.48478 20.057C3.53213 20.0789 3.58287 20.0902 3.63412 20.0902H6.17068M6.17068 8.63594H3.34143C3.29019 8.63594 3.23944 8.64722 3.1921 8.66915C3.14475 8.69108 3.10173 8.72322 3.0655 8.76374C3.02926 8.80426 3.00052 8.85236 2.98091 8.9053C2.9613 8.95824 2.9512 9.01498 2.9512 9.07228V9.83588C2.9512 9.89318 2.9613 9.94992 2.98091 10.0029C3.00052 10.0558 3.02926 10.1039 3.0655 10.1444C3.10173 10.1849 3.14475 10.2171 3.1921 10.239C3.23944 10.2609 3.29019 10.2722 3.34143 10.2722H6.17068M6.17068 11.9086H2.46338M6.17068 14.0904H2.46338M6.17068 16.2722H2.46338M1 9.08862V21.7274C1 22.3294 1.43702 22.8181 1.97545 22.8181H6.17087M1 7.19877V4.27274C1 3.67069 1.43702 3.18203 1.97545 3.18203H6.17087M19.8293 18.4545H22.3659C22.4694 18.4545 22.5686 18.5005 22.6418 18.5823C22.715 18.6641 22.7561 18.7751 22.7561 18.8908V19.6544C22.7561 19.7702 22.715 19.8812 22.6418 19.963C22.5686 20.0448 22.4694 20.0908 22.3659 20.0908H19.8293M10.561 7.00017H15.439M19.8293 8.63651H22.6585C22.762 8.63651 22.8613 8.68248 22.9345 8.76431C23.0077 8.84614 23.0488 8.95713 23.0488 9.07285V9.83646C23.0488 9.95218 23.0077 10.0632 22.9345 10.145C22.8613 10.2268 22.762 10.2728 22.6585 10.2728H19.8293M17.3903 12.4546H11.5366M10.0732 12.4546H8.60975M17.3903 14.6364H11.5366M10.0732 14.6364H8.60975M17.3903 16.8182H11.5366M10.0732 16.8182H8.60975M17.3903 19H11.5366M23.5366 11.9092H19.8293M23.5366 14.0909H19.8293M23.5366 16.2727H19.8293M10.0732 19H8.60975M10.3406 1H18.8536C19.3926 1 19.8291 1.48866 19.8291 2.09125V23.9087C19.8291 24.5113 19.3926 25 18.8536 25H7.14627C6.60736 25 6.17082 24.5113 6.17082 23.9087V2.09125C6.17082 1.48866 6.60736 1 7.14627 1H8.6505M25 19.1398V21.7273C25 22.3294 24.5629 22.818 24.0245 22.818H19.8291M19.8291 3.18197H24.0245C24.5629 3.18197 25 3.67063 25 4.27268V17.25M13.8455 4.49116L13 3.18209L12.1545 4.49116L10.561 3.7275L11.0488 7.00017H14.9512L15.439 3.7275L13.8455 4.49116ZM7.63415 9.83651V9.07291C7.63415 8.95718 7.67526 8.8462 7.74844 8.76437C7.82162 8.68254 7.92088 8.63657 8.02438 8.63657H17.9756C18.0791 8.63657 18.1783 8.68254 18.2515 8.76437C18.3247 8.8462 18.3658 8.95718 18.3658 9.07291V9.83651C18.3658 9.95224 18.3247 10.0632 18.2515 10.1451C18.1783 10.2269 18.0791 10.2729 17.9756 10.2729H8.02438C7.92088 10.2729 7.82162 10.2269 7.74844 10.1451C7.67526 10.0632 7.63415 9.95224 7.63415 9.83651ZM10.0732 22.3817V21.6181C10.0732 21.5024 10.1143 21.3914 10.1875 21.3096C10.2606 21.2277 10.3599 21.1818 10.4634 21.1818H15.5366C15.6401 21.1818 15.7393 21.2277 15.8125 21.3096C15.8857 21.3914 15.9268 21.5024 15.9268 21.6181V22.3817C15.9268 22.439 15.9167 22.4957 15.8971 22.5487C15.8775 22.6016 15.8487 22.6497 15.8125 22.6902C15.7763 22.7308 15.7333 22.7629 15.6859 22.7848C15.6386 22.8068 15.5878 22.818 15.5366 22.818H10.4634C10.4122 22.8181 10.3614 22.8068 10.3141 22.7849C10.2667 22.7629 10.2237 22.7308 10.1875 22.6903C10.1512 22.6497 10.1225 22.6016 10.1029 22.5487C10.0833 22.4958 10.0732 22.439 10.0732 22.3817Z" stroke="white" stroke-width="0.5" stroke-miterlimit="10" stroke-linecap="round" stroke-linejoin="round"/>
</svg>
