<svg width="24" height="24" viewBox="0 0 24 24" fill="none" xmlns="http://www.w3.org/2000/svg">
<circle cx="12" cy="12" r="11.75" stroke="white" stroke-width=".5"/>
<mask id="path-2-inside-1_154_20" fill="white">
<path d="M12 0C15.1826 3.79521e-08 18.2348 1.26428 20.4853 3.51472C22.7357 5.76515 24 8.8174 24 12C24 15.1826 22.7357 18.2348 20.4853 20.4853C18.2349 22.7357 15.1826 24 12 24L12 12L12 0Z"/>
</mask>
<path d="M12 0C15.1826 3.79521e-08 18.2348 1.26428 20.4853 3.51472C22.7357 5.76515 24 8.8174 24 12C24 15.1826 22.7357 18.2348 20.4853 20.4853C18.2349 22.7357 15.1826 24 12 24L12 12L12 0Z" fill="white" fill-opacity="0.6" stroke="white" mask="url(#path-2-inside-1_154_20)"/>
</svg>
