<svg width="24" height="24" viewBox="0 0 24 24" fill="none" xmlns="http://www.w3.org/2000/svg">
<circle cx="12" cy="12" r="11.75" stroke="white" stroke-width="0.5"/>
<mask id="path-2-inside-1_154_20" fill="white">
<path d="M12 1C9.08262 1 6.28473 2.15893 4.22183 4.22183C2.15893 6.28472 1 9.08262 1 12C1 14.9174 2.15892 17.7153 4.22182 19.7782C6.28472 21.8411 9.08262 23 12 23L12 12L12 1Z"/>
</mask>
<path d="M12 1C9.08262 1 6.28473 2.15893 4.22183 4.22183C2.15893 6.28472 1 9.08262 1 12C1 14.9174 2.15892 17.7153 4.22182 19.7782C6.28472 21.8411 9.08262 23 12 23L12 12L12 1Z" stroke="white" mask="url(#path-2-inside-1_154_20)"/>
</svg>
