<svg width="23" height="22" viewBox="0 0 23 22" fill="none" xmlns="http://www.w3.org/2000/svg">
<path d="M11.75 4.987L6.704 16.739L5.6875 13.5815L3.505 17.9275M11.75 4.987L16.796 16.739L17.8125 13.5815L19.9635 17.865M11.75 4.987V21.703M4.72 5.127L4.2625 4.669M8.657 9.064L8.199 8.606M6.46 4.407V3.759M6.46 9.974V9.326M8.9195 6.8665H9.5675M3.352 6.8665H4M8.199 5.127L8.657 4.669M4.2625 9.064L4.7205 8.606M8.2485 6.8665C8.2485 7.85454 7.44754 8.6555 6.4595 8.6555C5.47146 8.6555 4.6705 7.85454 4.6705 6.8665C4.6705 5.87846 5.47146 5.0775 6.4595 5.0775C7.44754 5.0775 8.2485 5.87846 8.2485 6.8665ZM17.304 4.752L17.2695 4.7545C17.5665 5.04596 17.7709 5.41866 17.8569 5.82583C17.9429 6.23301 17.9067 6.65651 17.7529 7.04319C17.5991 7.42988 17.3345 7.76251 16.9923 7.99936C16.6501 8.23621 16.2456 8.36671 15.8295 8.3745C16.0773 8.61673 16.3808 8.7943 16.7134 8.89157C17.0459 8.98883 17.3973 9.00279 17.7365 8.93223C18.0758 8.86167 18.3924 8.70875 18.6586 8.48694C18.9248 8.26514 19.1324 7.98126 19.263 7.66033C19.3936 7.33939 19.4433 6.99126 19.4076 6.6466C19.372 6.30195 19.2521 5.97136 19.0585 5.68396C18.865 5.39656 18.6037 5.16119 18.2977 4.99858C17.9918 4.83597 17.6505 4.75162 17.304 4.752ZM15.475 5.2215C15.475 5.31346 15.4005 5.388 15.3085 5.388C15.2165 5.388 15.142 5.31346 15.142 5.2215C15.142 5.12954 15.2165 5.055 15.3085 5.055C15.4005 5.055 15.475 5.12954 15.475 5.2215ZM15.919 7.1595C15.919 7.25146 15.8445 7.326 15.7525 7.326C15.6605 7.326 15.586 7.25146 15.586 7.1595C15.586 7.06754 15.6605 6.993 15.7525 6.993C15.8445 6.993 15.919 7.06754 15.919 7.1595ZM22.5 11C22.5 16.9371 17.6871 21.75 11.75 21.75C5.81294 21.75 1 16.9371 1 11C1 5.06294 5.81294 0.25 11.75 0.25C17.6871 0.25 22.5 5.06294 22.5 11Z" stroke="white" stroke-width="0.5" stroke-linecap="round" stroke-linejoin="round"/>
</svg>
