<svg width="188" height="230" viewBox="0 0 188 230" fill="none" xmlns="http://www.w3.org/2000/svg">
    <path d="M179.312 179.001C179.326 177.251 179.333 175.474 179.333 173.667C179.333 147.161 141.125 125.667 93.9998 125.667C46.8745 125.667 8.6665 147.161 8.6665 173.667C8.6665 200.174 8.6665 221.667 93.9998 221.667C117.797 221.667 134.96 219.993 147.333 217.006M136.667 51.0007C136.667 74.5648 117.564 93.6673 93.9998 93.6673C70.4357 93.6673 51.3332 74.5648 51.3332 51.0007C51.3332 27.4365 70.4357 8.33398 93.9998 8.33398C117.564 8.33398 136.667 27.4365 136.667 51.0007Z" stroke="white" stroke-width="16" stroke-linecap="round"/>
</svg>
